<?xml version="1.0" standalone="no"?>
<!DOCTYPE svg PUBLIC "-//W3C//DTD SVG 20010904//EN"
 "http://www.w3.org/TR/2001/REC-SVG-20010904/DTD/svg10.dtd">
<svg version="1.0" xmlns="http://www.w3.org/2000/svg"
 width="100.000000pt"  height="60.000000pt" viewBox="0 0 225.000000 225.000000"
 preserveAspectRatio="xMidYMid meet">

<g transform="translate(0.000000,225.000000) scale(0.100000,-0.100000)"
fill="#000000" stroke="none">
<path d="M900 2225 c-213 -43 -403 -147 -566 -309 -180 -180 -282 -382 -319
-630 -19 -130 -19 -192 0 -322 37 -248 139 -450 319 -630 180 -180 382 -282
630 -319 130 -19 192 -19 322 0 248 37 450 139 630 319 180 180 282 382 319
630 19 130 19 192 0 322 -37 248 -139 450 -319 630 -166 165 -356 268 -574
310 -92 18 -353 17 -442 -1z m635 -585 c4 -6 -3 -35 -14 -66 -12 -30 -21 -58
-21 -63 0 -5 24 -13 54 -19 110 -22 144 -48 117 -91 -7 -12 -21 -11 -87 7
-136 35 -139 35 -125 18 11 -13 10 -32 -3 -103 -18 -97 -20 -171 -7 -191 23
-36 71 20 98 113 10 36 42 44 65 18 13 -14 15 -27 8 -63 -12 -58 -12 -82 -1
-99 25 -39 95 46 84 103 -7 34 16 57 49 48 29 -7 48 -60 55 -151 l6 -78 72 -6
c82 -6 121 -23 159 -67 47 -56 24 -137 -36 -128 -18 2 -23 9 -23 35 -1 61 -65
103 -157 103 -44 0 -49 -2 -34 -13 15 -11 16 -19 6 -60 -23 -103 -85 -193
-162 -233 -19 -10 -55 -18 -87 -18 -48 0 -56 3 -82 32 -20 22 -29 43 -29 65 0
73 99 177 228 241 52 25 62 34 58 51 -3 11 -6 31 -6 44 0 25 0 25 -34 -8 -29
-28 -39 -32 -77 -29 -39 3 -46 7 -63 39 l-19 35 -31 -33 c-46 -48 -78 -52
-116 -15 -28 28 -30 35 -30 105 0 46 9 111 25 173 14 53 22 100 19 103 -3 3
-36 8 -72 11 -63 5 -67 6 -67 30 0 25 2 25 88 28 l88 3 21 47 c38 85 65 112
83 82z m-887 -193 c6 -5 12 -19 12 -31 0 -17 -14 -29 -56 -49 -31 -16 -81 -43
-110 -62 l-53 -34 38 -78 c20 -43 43 -93 51 -111 l13 -33 33 32 c36 35 54 32
54 -10 0 -27 -25 -57 -80 -95 -21 -15 -22 -17 -4 -12 18 5 23 0 34 -36 17 -57
24 -155 16 -212 -5 -32 -17 -56 -40 -81 -29 -30 -40 -35 -79 -35 -39 0 -52 5
-80 33 -68 68 -72 129 -9 135 26 3 31 -1 36 -25 10 -45 44 -93 65 -93 24 0 31
19 31 84 0 46 -30 179 -43 192 -3 3 -15 0 -28 -6 -19 -11 -25 -10 -36 6 -12
16 -10 21 17 42 l29 23 -19 49 c-30 77 -79 170 -89 170 -15 0 -79 -79 -85
-106 -9 -33 14 -79 39 -79 46 0 37 -59 -10 -71 -91 -23 -144 85 -95 194 36 80
189 211 334 287 64 33 84 35 114 12z m203 -67 c12 -7 19 -21 19 -40 0 -25 -4
-29 -32 -32 -46 -4 -69 -48 -75 -146 -4 -54 -1 -96 11 -142 17 -65 17 -65 -5
-83 -46 -37 -59 -22 -106 118 -55 162 -54 159 -21 163 22 3 32 -3 47 -28 l19
-31 11 67 c14 79 31 114 67 143 30 24 38 25 65 11z m418 -16 c79 -66 60 -253
-29 -299 -66 -34 -156 -10 -184 50 -40 85 -27 176 34 237 34 35 42 38 93 38
45 0 61 -5 86 -26z m-298 -122 c59 -52 58 -164 -2 -206 -35 -24 -91 -21 -123
9 -32 30 -46 64 -46 117 0 32 7 47 34 74 44 44 92 46 137 6z"/>
<path d="M1673 921 c-58 -27 -132 -98 -155 -149 -18 -40 -18 -45 -4 -68 20
-29 28 -29 82 -5 44 20 85 66 108 122 18 44 30 119 19 119 -4 0 -27 -9 -50
-19z"/>
<path d="M1149 1311 c-18 -14 -23 -31 -27 -79 -5 -76 2 -108 28 -122 55 -29
94 29 88 128 -3 48 -9 68 -23 78 -25 19 -38 18 -66 -5z"/>
<path d="M877 1203 c-4 -3 -7 -26 -7 -49 0 -32 7 -50 25 -71 l25 -28 20 24
c21 25 21 51 -1 109 -8 21 -47 31 -62 15z"/>
</g>
</svg>
